<?xml version="1.0" encoding="utf-8"?>
<!-- Generator: Adobe Illustrator 24.3.0, SVG Export Plug-In . SVG Version: 6.00 Build 0)  -->
<svg version="1.1" id="Layer_1" xmlns="http://www.w3.org/2000/svg" xmlns:xlink="http://www.w3.org/1999/xlink" x="0px" y="0px"
	 viewBox="0 0 300 300" enable-background="new 0 0 300 300" xml:space="preserve">
<g>
	<g>
		<g>
			<path fill="#9AD7D2" d="M234.251,102.304l-32.41-32.409h-49.572h-0.434h-49.572l-32.407,32.409
				c0,0,18.441,120.489,81.979,131.105v0.09c0.077-0.012,0.139-0.035,0.218-0.044c0.071,0.009,0.139,0.032,0.216,0.044v-0.09
				C215.807,222.793,234.251,102.304,234.251,102.304z"/>
		</g>
		<g>
			<path fill="#ABEDE6" d="M90.985,102.304l32.407-32.409h-21.129l-32.407,32.409c0,0,18.441,120.489,81.979,131.105v0.09
				c0.077-0.012,0.139-0.035,0.218-0.044c0.071,0.009,0.139,0.032,0.216,0.044v-0.09c3.595-0.601,7.036-1.57,10.347-2.831
				C107.406,209.53,90.985,102.304,90.985,102.304z"/>
		</g>
		<g>
			<g>
				<path fill="#FE6F80" d="M144.896,175.609c-2.023,0-3.967-0.805-5.397-2.236l-22.302-22.302c-2.981-2.982-2.981-7.813,0-10.792
					c2.98-2.981,7.81-2.981,10.791,0l16.908,16.905l40.167-40.167c2.981-2.98,7.81-2.98,10.791,0c2.983,2.979,2.983,7.811,0,10.792
					l-45.564,45.564C148.861,174.804,146.917,175.609,144.896,175.609z"/>
			</g>
		</g>
		<g>
			<path fill="#9AD7D2" d="M152.057,248.119c3.332,0,6.041,2.707,6.041,6.044v10.788c0,3.336-2.709,6.04-6.041,6.04l0,0
				c-3.338,0-6.044-2.704-6.044-6.04v-10.788C146.013,250.826,148.719,248.119,152.057,248.119L152.057,248.119z"/>
		</g>
		<g>
			<path fill="#9AD7D2" d="M152.057,29.009c3.332,0,6.041,2.707,6.041,6.044V45.84c0,3.336-2.709,6.041-6.041,6.041l0,0
				c-3.338,0-6.044-2.704-6.044-6.041V35.053C146.013,31.716,148.719,29.009,152.057,29.009L152.057,29.009z"/>
		</g>
		<g>
			<path fill="#9AD7D2" d="M248.117,149.997c0-3.332,2.709-6.04,6.047-6.04h10.788c3.335,0,6.041,2.709,6.041,6.04l0,0
				c0,3.34-2.706,6.045-6.041,6.045h-10.788C250.826,156.042,248.117,153.337,248.117,149.997L248.117,149.997z"/>
		</g>
		<g>
			<path fill="#9AD7D2" d="M29.01,149.997c0-3.332,2.706-6.04,6.044-6.04h10.788c3.335,0,6.038,2.709,6.038,6.04l0,0
				c0,3.34-2.703,6.045-6.038,6.045H35.053C31.715,156.042,29.01,153.337,29.01,149.997L29.01,149.997z"/>
		</g>
		<g>
			<path fill="#9AD7D2" d="M232.361,230.301c2.357-2.356,6.185-2.357,8.546,0.003l7.627,7.627c2.36,2.36,2.357,6.19,0.003,8.546l0,0
				c-2.363,2.362-6.188,2.362-8.549,0.002l-7.627-7.629C229.998,236.49,229.998,232.663,232.361,230.301L232.361,230.301z"/>
		</g>
		<g>
			<path fill="#9AD7D2" d="M55.577,53.519c2.357-2.356,6.185-2.357,8.546,0.003l7.63,7.629c2.357,2.359,2.354,6.185,0,8.543l0,0
				c-2.363,2.36-6.188,2.362-8.549,0.003l-7.627-7.629C53.219,59.708,53.216,55.88,55.577,53.519L55.577,53.519z"/>
		</g>
		<g>
			<path fill="#9AD7D2" d="M232.358,69.693c-2.354-2.357-2.357-6.185,0.003-8.546l7.627-7.627c2.36-2.36,6.191-2.357,8.546-0.003
				l0,0c2.363,2.363,2.363,6.188,0.003,8.548l-7.63,7.627C238.546,72.056,234.721,72.056,232.358,69.693L232.358,69.693z"/>
		</g>
		<g>
			<path fill="#9AD7D2" d="M55.577,246.475c-2.357-2.356-2.357-6.185,0.003-8.544l7.63-7.628c2.357-2.36,6.186-2.356,8.543,0l0,0
				c2.357,2.361,2.36,6.187,0,8.546l-7.627,7.628C61.768,248.835,57.94,248.837,55.577,246.475L55.577,246.475z"/>
		</g>
	</g>
	<g>
		<g>
			<path fill="#161616" d="M151.835,238.036c-0.566,0-1.124-0.106-1.647-0.31C84.898,225.769,66.14,108.019,65.369,102.99
				c-0.219-1.428,0.255-2.874,1.278-3.895l32.409-32.408c0.851-0.851,2.004-1.329,3.208-1.329h99.578
				c1.202,0,2.357,0.478,3.208,1.329l32.41,32.408c1.022,1.021,1.495,2.468,1.276,3.895c-0.236,1.557-6.023,38.514-22.204,73.682
				c-1.046,2.274-3.749,3.267-6.017,2.226c-2.277-1.047-3.273-3.743-2.224-6.019c13.417-29.167,19.584-60.506,21.097-69.023
				l-29.424-29.424h-95.821l-29.421,29.421c2.899,16.233,22.783,115.255,77.33,124.989c17.395-3.104,32.983-15.66,46.341-37.325
				c1.314-2.134,4.112-2.796,6.242-1.481c2.133,1.314,2.797,4.11,1.48,6.243c-14.74,23.913-32.348,37.863-52.34,41.474
				c-0.54,0.199-1.093,0.297-1.701,0.278C151.995,238.035,151.915,238.036,151.835,238.036z M152.993,237.89
				c-0.003,0-0.003,0-0.003,0S152.99,237.89,152.993,237.89z M152.999,237.888h-0.003H152.999z M153.005,237.887c0,0,0,0-0.003,0
				C153.005,237.887,153.005,237.887,153.005,237.887z"/>
		</g>
		<g>
			<g>
				<path fill="#161616" d="M144.896,175.609c-2.023,0-3.967-0.805-5.397-2.236l-22.302-22.302c-2.981-2.982-2.981-7.813,0-10.792
					c2.98-2.981,7.81-2.981,10.791,0l16.908,16.905l40.167-40.167c2.981-2.98,7.81-2.98,10.791,0c2.983,2.979,2.983,7.811,0,10.792
					l-45.564,45.564C148.861,174.804,146.917,175.609,144.896,175.609z"/>
			</g>
		</g>
		<g>
			<path fill="#161616" d="M152.057,275.528c-5.835,0-10.582-4.745-10.582-10.578v-10.788c0-5.834,4.747-10.581,10.582-10.581
				c5.834,0,10.578,4.747,10.578,10.581v10.788C162.634,270.783,157.891,275.528,152.057,275.528z M152.057,252.656
				c-0.831,0-1.508,0.677-1.508,1.507v10.788c0,0.829,0.676,1.504,1.508,1.504c0.83,0,1.503-0.675,1.503-1.504v-10.788
				C153.56,253.333,152.887,252.656,152.057,252.656z"/>
		</g>
		<g>
			<path fill="#161616" d="M152.057,56.418c-5.835,0-10.582-4.745-10.582-10.578V35.052c0-5.834,4.747-10.581,10.582-10.581
				c5.834,0,10.578,4.747,10.578,10.581V45.84C162.634,51.673,157.891,56.418,152.057,56.418z M152.057,33.546
				c-0.831,0-1.508,0.676-1.508,1.507V45.84c0,0.829,0.676,1.504,1.508,1.504c0.83,0,1.503-0.675,1.503-1.504V35.052
				C153.56,34.222,152.887,33.546,152.057,33.546z"/>
		</g>
		<g>
			<path fill="#161616" d="M264.951,160.579h-10.788c-5.837,0-10.584-4.747-10.584-10.582c0-5.833,4.747-10.578,10.584-10.578
				h10.788c5.834,0,10.578,4.745,10.578,10.578C275.529,155.832,270.785,160.579,264.951,160.579z M254.164,148.494
				c-0.833,0-1.509,0.675-1.509,1.504c0,0.831,0.676,1.508,1.509,1.508h10.788c0.83,0,1.503-0.676,1.503-1.508
				c0-0.829-0.673-1.504-1.503-1.504H254.164z"/>
		</g>
		<g>
			<path fill="#161616" d="M45.839,160.579H35.052c-5.834,0-10.581-4.747-10.581-10.582c0-5.833,4.747-10.578,10.581-10.578h10.788
				c5.833,0,10.578,4.745,10.578,10.578C56.417,155.832,51.672,160.579,45.839,160.579z M35.052,148.494
				c-0.83,0-1.507,0.675-1.507,1.504c0,0.831,0.676,1.508,1.507,1.508h10.788c0.829,0,1.504-0.676,1.504-1.508
				c0-0.829-0.675-1.504-1.504-1.504H35.052z"/>
		</g>
		<g>
			<path fill="#161616" d="M244.259,252.779c-2.709,0-5.417-1.031-7.479-3.093l-7.627-7.628c-2-1.997-3.102-4.654-3.102-7.482
				c0-2.827,1.102-5.484,3.102-7.484c4.124-4.121,10.838-4.122,14.961,0.005l7.627,7.627c4.124,4.124,4.127,10.836,0.003,14.961
				C249.68,251.748,246.971,252.779,244.259,252.779z M232.361,230.301l3.208,3.209c-0.387,0.384-0.443,0.833-0.443,1.065
				c0,0.233,0.056,0.681,0.44,1.063l7.63,7.631c0.588,0.588,1.545,0.588,2.133-0.003c0.585-0.585,0.585-1.54-0.003-2.128
				l-7.627-7.627c-0.591-0.588-1.545-0.583-2.13-0.002L232.361,230.301z"/>
		</g>
		<g>
			<path fill="#161616" d="M67.474,75.995c-2.709,0-5.416-1.03-7.476-3.091l-7.628-7.628c-1.998-1.998-3.099-4.654-3.099-7.481
				c0-2.827,1.1-5.485,3.1-7.484c1.995-1.997,4.652-3.096,7.478-3.096c0.001,0,0.001,0,0.001,0c2.827,0,5.485,1.1,7.482,3.099
				l7.627,7.628c4.124,4.121,4.125,10.832,0.001,14.958C72.895,74.964,70.184,75.995,67.474,75.995z M59.848,56.289
				c-0.233,0-0.681,0.056-1.062,0.437c-0.588,0.588-0.588,1.545-0.001,2.133l7.628,7.628c0.586,0.588,1.543,0.586,2.13-0.005
				c0.585-0.585,0.586-1.539,0-2.124l-7.628-7.63C60.53,56.346,60.081,56.289,59.848,56.289L59.848,56.289z"/>
		</g>
		<g>
			<path fill="#161616" d="M236.632,76.002c-2.824,0-5.482-1.102-7.482-3.102l-0.003-0.001c-4.121-4.127-4.118-10.836,0.006-14.96
				l7.627-7.627c4.124-4.127,10.838-4.127,14.961-0.003c4.127,4.127,4.13,10.839,0.003,14.964l-7.63,7.628
				C242.118,74.9,239.459,76.002,236.632,76.002z M235.566,66.485c0.387,0.385,0.836,0.443,1.066,0.443
				c0.233,0,0.679-0.058,1.063-0.442l7.633-7.63c0.588-0.586,0.585-1.542-0.003-2.131c-0.582-0.581-1.536-0.586-2.13,0.003
				l-7.627,7.627C234.981,64.941,234.981,65.897,235.566,66.485L235.566,66.485z"/>
		</g>
		<g>
			<path fill="#161616" d="M59.852,252.783c-2.827,0-5.485-1.1-7.484-3.1c-1.997-1.997-3.097-4.652-3.096-7.479
				c0-2.827,1.1-5.485,3.099-7.482L60,227.095c4.121-4.124,10.832-4.125,14.959-0.002c4.125,4.128,4.127,10.841,0.003,14.963
				l-7.628,7.628C65.335,251.683,62.679,252.783,59.852,252.783z M67.479,233.071c-0.385,0-0.77,0.146-1.062,0.44l-7.63,7.628
				c-0.384,0.384-0.44,0.833-0.44,1.066c0,0.232,0.056,0.681,0.437,1.062c0.591,0.586,1.545,0.588,2.133,0.001l7.628-7.628
				c0.586-0.586,0.583-1.542-0.004-2.13C68.249,233.218,67.863,233.071,67.479,233.071z"/>
		</g>
	</g>
</g>
</svg>
